<svg xmlns="http://www.w3.org/2000/svg" viewBox="0 0 512 512">
  <path fill="#3f1410" d="M252.964 24.855c13.956-1.28 18.925 4.372 28.645 12.652 7.535 6.321 14.956 12.776 22.264 19.36l47.525 41.189-.203-26.871c-.075-8.786-2.39-22.459 10.321-22.761 19.144-.275 38.291-.347 57.437-.217 6.741.014 13.513-.255 20.236-.023 2.495.088 6.396 3.77 6.675 6.17.47 4.046.317 8.371.312 12.452l.007 21.486c-.195 30.993-.181 61.987.042 92.979 2.846 2.128 5.874 5.011 8.585 7.369 14.835 12.91 29.564 25.956 44.458 38.803 6.338 5.467 10.425 12.24 10.84 20.737.382 7.908-2.438 15.638-7.822 21.442-11.323 12.393-29.763 13.824-42.287 2.273-.329 13.578-.06 28.163-.011 41.819l.13 71.128.053 21.576c.014 7.645.353 15.05-1.324 22.564-2.299 10.6-7.577 20.322-15.214 28.021-22.058 22.012-42.439 18.024-70.52 18.039l-62.132.094-199.245.225c-16.732-.009-30.919-4.457-43.035-16.69-8.238-8.177-13.903-18.586-16.298-29.944-1.879-8.829-1.162-14.688-1.134-23.514l.04-26.831c-.104-35.286.002-70.574.32-105.86-4.97 3.027-8.989 5.492-14.891 6.294-8.274 1.113-16.65-1.106-23.284-6.172-6.335-4.838-10.433-12.044-11.352-19.962-.864-7.239 1.278-15.04 5.841-20.738 2.151-2.686 7.032-6.366 9.837-8.763l16.957-14.604 51.14-44.689c38.149-33.868 76.483-67.527 114.999-101.022 10.449-8.991 20.949-18.328 31.085-27.655 7.29-6.708 11.01-9.361 20.003-10.4z"/>
  <path fill="#fde5d5" d="M257.389 104.771c33.101 16.965 184.466 156.91 187.008 173.348 5.153 33.326-1.406 163.11-16.14 169.729-37.075 16.645-244.121 16.864-304.725 12.85-14.038-.932-25.949-.539-37.014-9.015-8.172-6.261-12.704-25.007-14.906-34.909-3.252-14.627-14.839-106.313-5.398-143.96 4.973-19.827 184.851-171.287 191.175-168.043z"/>
  <path fill="#3f1410" d="M354.106 248.173c32.913-2.682 61.793 21.76 64.589 54.664 2.793 32.901-21.55 61.867-54.442 64.774-33.054 2.925-62.192-21.567-65-54.627-2.807-33.062 21.783-62.117 54.853-64.811z"/>
  <path fill="#fff" d="M336.458 277.304c9.731-.711 18.181 6.637 18.827 16.374.65 9.735-6.749 18.138-16.488 18.726-9.654.585-17.969-6.735-18.611-16.387-.643-9.649 6.625-18.01 16.272-18.713z"/>
  <path fill="#3f1410" d="M144.822 248.746c32.556-.974 59.812 24.465 60.962 57.014 1.149 32.554-24.237 59.906-56.781 61.179-32.725 1.284-60.258-24.272-61.414-56.999-1.158-32.727 24.504-60.162 57.233-61.194z"/>
  <path fill="#fff" d="M121.705 278.136c9.563-2.437 19.277 3.393 21.638 12.976 2.359 9.582-3.544 19.251-13.146 21.537-9.495 2.256-19.035-3.565-21.367-13.043-2.331-9.481 3.414-19.064 12.875-21.47z"/>
  <path fill="#ff7676" d="M143.582 387.063c56.155-1.958 69.436 43.775 6.721 49.568-13.906.389-23.584-.856-34.715-6.546-8.495-4.346-12.872-11.037-13.587-17.751-.688-6.038 2.626-11.992 9.197-16.507 8.613-5.991 19.766-8.321 32.384-8.764zM352.821 386.726c12.175-.693 24.393.786 34.426 5.233 8.695 3.827 14.547 9.621 16.263 16.101 3.471 13.792-13.568 26.031-35.602 27.981-14.736.951-29.603-.924-40.104-7.538-25.645-16.152-8.713-37.987 25.017-41.777z"/>
  <path fill="#3f1410" d="M279.435 352.146c10.754.182 11.387 9.507 5.667 16.529-11.846 14.533-34.16 18.472-50.748 10.293-4.195-2.067-7.466-4.521-11.146-7.389-6.004-5.228-11.88-12.578-1.08-18.707 3.907-2.024 8.939 2.117 11.138 5.097 7.862 10.63 25.328 10.713 35.257 3.351 3.756-2.788 5.662-7.188 10.912-9.174z"/>
  <path fill="#e6a77a" d="M264.841 41.038c14.78 6.909 226.707 190.248 229.518 196.343 3.25 7.049 6.672 17.315 1.642 23.227-5.775 6.789-1.729 7.706-28.029 3.709-13.797-2.098-203.338-181.73-210.058-183.015-5.069-.969-185.066 159.106-195.46 167.307-1.534 1.208-34.54 33.343-44.077 4.928-6.474-19.292 5.389-20.133 12.776-27.688 14.612-14.944 205.776-180.66 210.591-183.789 3.231-2.1 19.606-2.653 23.097-1.022z"/>
  <path fill="#fac9a5" d="M366.816 65.488c19.476-15.711 66.203-2.779 66.203-2.779 9.584 25.376 3.08 40.434 3.005 63.936-.009 14.024.176 31.334-.156 45.325 1.97-4.99-69.737-63.98-74.695-68.666.165-15.957-6.846-27.741 5.643-37.816z"/>
</svg>
